<?xml version="1.0" encoding="UTF-8"?>
<svg xmlns="http://www.w3.org/2000/svg" xmlns:xlink="http://www.w3.org/1999/xlink" width="30pt" height="30pt" viewBox="0 0 30 30" version="1.1">
<g id="surface1">
<path style=" stroke:none;fill-rule:nonzero;fill:rgb(100%,75.686275%,2.745098%);fill-opacity:1;" d="M 24.5625 6 L 29.640625 1.769531 C 30.0625 1.414062 30.121094 0.785156 29.769531 0.359375 C 29.578125 0.132812 29.296875 0 29 0 L 13 0 C 12.449219 0 12 0.449219 12 1 L 12 11 C 12 11.550781 12.449219 12 13 12 L 29 12 C 29.550781 12 30 11.550781 30 11 C 30 10.703125 29.867188 10.421875 29.640625 10.230469 Z M 24.5625 6 "/>
<path style=" stroke:none;fill-rule:nonzero;fill:rgb(12.941176%,58.823529%,95.294118%);fill-opacity:1;" d="M 26 25 C 26 22.238281 20.179688 20 13 20 C 5.820312 20 0 22.238281 0 25 C 0 27.761719 5.820312 30 13 30 C 20.179688 30 26 27.761719 26 25 Z M 26 25 "/>
<path style=" stroke:none;fill-rule:nonzero;fill:rgb(0%,0%,0%);fill-opacity:1;" d="M 13 26 C 12.449219 26 12 25.550781 12 25 L 12 1 C 12 0.449219 12.449219 0 13 0 C 13.550781 0 14 0.449219 14 1 L 14 25 C 14 25.550781 13.550781 26 13 26 Z M 13 26 "/>
<path style=" stroke:none;fill-rule:nonzero;fill:rgb(0%,0%,0%);fill-opacity:1;" d="M 29 12 L 13 12 C 12.449219 12 12 11.550781 12 11 L 12 1 C 12 0.449219 12.449219 0 13 0 L 29 0 C 29.550781 0 30 0.449219 30 1 C 30 1.296875 29.867188 1.578125 29.640625 1.769531 L 24.5625 6 L 29.640625 10.230469 C 30.0625 10.585938 30.121094 11.214844 29.769531 11.640625 C 29.578125 11.867188 29.296875 12 29 12 Z M 14 10 L 26.238281 10 L 22.359375 6.769531 C 21.9375 6.414062 21.878906 5.785156 22.234375 5.359375 C 22.269531 5.3125 22.3125 5.269531 22.359375 5.230469 L 26.238281 2 L 14 2 Z M 14 10 "/>
<path style=" stroke:none;fill-rule:nonzero;fill:rgb(0%,0%,0%);fill-opacity:1;" d="M 13 30 C 6.539062 30 0 28.285156 0 25 C 0 22.667969 3.320312 20.890625 8.882812 20.246094 C 9.433594 20.183594 9.929688 20.574219 9.996094 21.125 C 10.058594 21.671875 9.664062 22.171875 9.117188 22.234375 C 4.089844 22.8125 2 24.320312 2 25 C 2 26.019531 5.882812 28 13 28 C 20.117188 28 24 26.019531 24 25 C 24 24.320312 21.914062 22.8125 16.882812 22.234375 C 16.335938 22.171875 15.941406 21.671875 16.007812 21.125 C 16.070312 20.574219 16.566406 20.183594 17.117188 20.246094 C 22.679688 20.890625 26 22.667969 26 25 C 26 28.285156 19.460938 30 13 30 Z M 13 30 "/>
</g>
</svg>
