<?xml version="1.0" encoding="UTF-8"?>
<svg xmlns="http://www.w3.org/2000/svg" xmlns:xlink="http://www.w3.org/1999/xlink" width="30pt" height="30pt" viewBox="0 0 30 30" version="1.1">
<g id="surface1">
<path style=" stroke:none;fill-rule:nonzero;fill:rgb(98.823529%,43.137255%,31.764706%);fill-opacity:1;" d="M 17.8125 16.875 L 17.8125 18.75 L 1.40625 18.75 C 1.148438 18.75 0.9375 18.539062 0.9375 18.28125 L 0.9375 17.34375 C 0.9375 17.085938 1.148438 16.875 1.40625 16.875 Z M 17.8125 16.875 "/>
<path style=" stroke:none;fill-rule:nonzero;fill:rgb(100%,50.980392%,43.137255%);fill-opacity:1;" d="M 17.8125 18.75 L 17.8125 24.375 L 11.25 24.375 C 11.25 22.824219 9.988281 21.5625 8.4375 21.5625 C 6.886719 21.5625 5.625 22.824219 5.625 24.375 L 2.8125 24.375 C 2.296875 24.375 1.875 23.953125 1.875 23.4375 L 1.875 22.5 L 4.21875 22.5 L 4.6875 20.625 L 1.875 20.625 L 1.875 18.75 Z M 17.8125 18.75 "/>
<path style=" stroke:none;fill-rule:nonzero;fill:rgb(100%,50.980392%,43.137255%);fill-opacity:1;" d="M 29.0625 22.03125 L 29.0625 23.4375 C 29.0625 23.953125 28.640625 24.375 28.125 24.375 L 26.25 24.375 C 26.25 23.546875 25.890625 22.796875 25.3125 22.28125 L 25.3125 15.9375 L 24.859375 13.507812 C 24.816406 13.285156 24.625 13.125 24.398438 13.125 L 20.15625 13.125 C 19.898438 13.125 19.6875 13.335938 19.6875 13.59375 L 19.6875 24.375 L 17.8125 24.375 L 17.8125 13.125 C 17.8125 12.78125 17.90625 12.464844 18.066406 12.1875 C 18.390625 11.625 18.992188 11.25 19.6875 11.25 L 24.660156 11.25 C 25.578125 11.25 26.363281 11.910156 26.511719 12.816406 L 27.1875 16.875 L 28.027344 17.292969 C 28.660156 17.609375 29.0625 18.261719 29.0625 18.96875 L 29.0625 19.6875 L 27.1875 19.6875 L 27.1875 21.09375 Z M 29.0625 22.03125 "/>
<path style=" stroke:none;fill-rule:nonzero;fill:rgb(98.823529%,43.137255%,31.764706%);fill-opacity:1;" d="M 25.3125 17.8125 L 25.3125 22.28125 C 24.816406 21.835938 24.160156 21.5625 23.4375 21.5625 C 21.886719 21.5625 20.625 22.824219 20.625 24.375 L 19.6875 24.375 L 19.6875 17.8125 Z M 25.3125 17.8125 "/>
<path style=" stroke:none;fill-rule:nonzero;fill:rgb(98.823529%,84.313725%,43.921569%);fill-opacity:1;" d="M 29.0625 19.6875 L 29.0625 22.03125 L 27.1875 21.09375 L 27.1875 19.6875 Z M 29.0625 19.6875 "/>
<path style=" stroke:none;fill-rule:nonzero;fill:rgb(98.823529%,84.313725%,43.921569%);fill-opacity:1;" d="M 4.6875 20.625 L 4.21875 22.5 L 1.875 22.5 L 1.875 20.625 Z M 4.6875 20.625 "/>
<path style=" stroke:none;fill-rule:nonzero;fill:rgb(58.823529%,62.352941%,66.666667%);fill-opacity:1;" d="M 25.3125 22.28125 C 25.890625 22.796875 26.25 23.546875 26.25 24.375 C 26.25 25.925781 24.988281 27.1875 23.4375 27.1875 C 21.886719 27.1875 20.625 25.925781 20.625 24.375 C 20.625 22.824219 21.886719 21.5625 23.4375 21.5625 C 24.160156 21.5625 24.816406 21.835938 25.3125 22.28125 Z M 25.3125 22.28125 "/>
<path style=" stroke:none;fill-rule:nonzero;fill:rgb(58.823529%,62.352941%,66.666667%);fill-opacity:1;" d="M 8.4375 21.5625 C 9.988281 21.5625 11.25 22.824219 11.25 24.375 C 11.25 25.925781 9.988281 27.1875 8.4375 27.1875 C 6.886719 27.1875 5.625 25.925781 5.625 24.375 C 5.625 22.824219 6.886719 21.5625 8.4375 21.5625 Z M 8.4375 21.5625 "/>
<path style=" stroke:none;fill-rule:nonzero;fill:rgb(80%,81.960784%,85.098039%);fill-opacity:1;" d="M 24.375 24.375 C 24.375 24.894531 23.957031 25.3125 23.4375 25.3125 C 22.917969 25.3125 22.5 24.894531 22.5 24.375 C 22.5 23.855469 22.917969 23.4375 23.4375 23.4375 C 23.957031 23.4375 24.375 23.855469 24.375 24.375 Z M 24.375 24.375 "/>
<path style=" stroke:none;fill-rule:nonzero;fill:rgb(80%,81.960784%,85.098039%);fill-opacity:1;" d="M 9.375 24.375 C 9.375 24.894531 8.957031 25.3125 8.4375 25.3125 C 7.917969 25.3125 7.5 24.894531 7.5 24.375 C 7.5 23.855469 7.917969 23.4375 8.4375 23.4375 C 8.957031 23.4375 9.375 23.855469 9.375 24.375 Z M 9.375 24.375 "/>
<path style=" stroke:none;fill-rule:nonzero;fill:rgb(41.176471%,83.921569%,95.686275%);fill-opacity:1;" d="M 22.5 16.40625 C 22.5 17.183594 23.128906 17.8125 23.90625 17.8125 L 19.6875 17.8125 L 19.6875 13.59375 C 19.6875 13.335938 19.898438 13.125 20.15625 13.125 L 24.398438 13.125 C 24.625 13.125 24.816406 13.285156 24.859375 13.507812 L 25.3125 15.9375 L 22.96875 15.9375 C 22.710938 15.9375 22.5 16.148438 22.5 16.40625 Z M 22.5 16.40625 "/>
<path style=" stroke:none;fill-rule:nonzero;fill:rgb(66.666667%,69.803922%,74.117647%);fill-opacity:1;" d="M 25.3125 15.9375 L 25.3125 17.8125 L 23.90625 17.8125 C 23.128906 17.8125 22.5 17.183594 22.5 16.40625 C 22.5 16.148438 22.710938 15.9375 22.96875 15.9375 Z M 25.3125 15.9375 "/>
<path style=" stroke:none;fill-rule:nonzero;fill:rgb(82.745098%,62.745098%,42.352941%);fill-opacity:1;" d="M 1.875 12.1875 L 7.5 12.1875 L 7.5 16.875 L 1.875 16.875 Z M 1.875 12.1875 "/>
<path style=" stroke:none;fill-rule:nonzero;fill:rgb(82.745098%,62.745098%,42.352941%);fill-opacity:1;" d="M 7.5 12.1875 L 13.125 12.1875 L 13.125 16.875 L 7.5 16.875 Z M 7.5 12.1875 "/>
<path style=" stroke:none;fill-rule:nonzero;fill:rgb(82.745098%,62.745098%,42.352941%);fill-opacity:1;" d="M 13.125 12.1875 L 18.75 12.1875 L 18.75 16.875 L 13.125 16.875 Z M 13.125 12.1875 "/>
<path style=" stroke:none;fill-rule:nonzero;fill:rgb(82.745098%,62.745098%,42.352941%);fill-opacity:1;" d="M 4.6875 7.5 L 10.3125 7.5 L 10.3125 12.1875 L 4.6875 12.1875 Z M 4.6875 7.5 "/>
<path style=" stroke:none;fill-rule:nonzero;fill:rgb(82.745098%,62.745098%,42.352941%);fill-opacity:1;" d="M 10.3125 7.5 L 15.9375 7.5 L 15.9375 12.1875 L 10.3125 12.1875 Z M 10.3125 7.5 "/>
<path style=" stroke:none;fill-rule:nonzero;fill:rgb(82.745098%,62.745098%,42.352941%);fill-opacity:1;" d="M 7.5 2.8125 L 13.125 2.8125 L 13.125 7.5 L 7.5 7.5 Z M 7.5 2.8125 "/>
<path style=" stroke:none;fill-rule:nonzero;fill:rgb(69.803922%,47.45098%,27.45098%);fill-opacity:1;" d="M 9.375 2.8125 L 11.25 2.8125 L 11.25 4.6875 L 9.375 4.6875 Z M 9.375 2.8125 "/>
<path style=" stroke:none;fill-rule:nonzero;fill:rgb(69.803922%,47.45098%,27.45098%);fill-opacity:1;" d="M 8.4375 7.5 L 8.4375 9.375 L 6.5625 9.375 L 6.5625 7.5 Z M 8.4375 7.5 "/>
<path style=" stroke:none;fill-rule:nonzero;fill:rgb(69.803922%,47.45098%,27.45098%);fill-opacity:1;" d="M 14.0625 7.5 L 14.0625 9.375 L 12.1875 9.375 L 12.1875 7.5 Z M 14.0625 7.5 "/>
<path style=" stroke:none;fill-rule:nonzero;fill:rgb(69.803922%,47.45098%,27.45098%);fill-opacity:1;" d="M 15.9375 12.1875 L 18.066406 12.1875 C 17.90625 12.464844 17.8125 12.78125 17.8125 13.125 L 17.8125 14.0625 L 15 14.0625 L 15 12.1875 Z M 15.9375 12.1875 "/>
<path style=" stroke:none;fill-rule:nonzero;fill:rgb(69.803922%,47.45098%,27.45098%);fill-opacity:1;" d="M 11.25 12.1875 L 11.25 14.0625 L 9.375 14.0625 L 9.375 12.1875 Z M 11.25 12.1875 "/>
<path style=" stroke:none;fill-rule:nonzero;fill:rgb(69.803922%,47.45098%,27.45098%);fill-opacity:1;" d="M 5.625 12.1875 L 5.625 14.0625 L 3.75 14.0625 L 3.75 12.1875 Z M 5.625 12.1875 "/>
<path style=" stroke:none;fill-rule:nonzero;fill:rgb(0%,0%,0%);fill-opacity:1;" d="M 23.4375 22.96875 C 22.664062 22.96875 22.03125 23.601562 22.03125 24.375 C 22.03125 25.148438 22.664062 25.78125 23.4375 25.78125 C 24.210938 25.78125 24.84375 25.148438 24.84375 24.375 C 24.84375 23.601562 24.210938 22.96875 23.4375 22.96875 Z M 23.4375 24.84375 C 23.179688 24.84375 22.96875 24.632812 22.96875 24.375 C 22.96875 24.117188 23.179688 23.90625 23.4375 23.90625 C 23.695312 23.90625 23.90625 24.117188 23.90625 24.375 C 23.90625 24.632812 23.695312 24.84375 23.4375 24.84375 Z M 23.4375 24.84375 "/>
<path style=" stroke:none;fill-rule:nonzero;fill:rgb(0%,0%,0%);fill-opacity:1;" d="M 8.4375 22.96875 C 7.664062 22.96875 7.03125 23.601562 7.03125 24.375 C 7.03125 25.148438 7.664062 25.78125 8.4375 25.78125 C 9.210938 25.78125 9.84375 25.148438 9.84375 24.375 C 9.84375 23.601562 9.210938 22.96875 8.4375 22.96875 Z M 8.4375 24.84375 C 8.179688 24.84375 7.96875 24.632812 7.96875 24.375 C 7.96875 24.117188 8.179688 23.90625 8.4375 23.90625 C 8.695312 23.90625 8.90625 24.117188 8.90625 24.375 C 8.90625 24.632812 8.695312 24.84375 8.4375 24.84375 Z M 8.4375 24.84375 "/>
<path style=" stroke:none;fill-rule:nonzero;fill:rgb(0%,0%,0%);fill-opacity:1;" d="M 28.234375 16.875 L 27.609375 16.5625 L 26.972656 12.738281 C 26.785156 11.605469 25.8125 10.78125 24.660156 10.78125 L 19.6875 10.78125 C 18.925781 10.78125 18.253906 11.152344 17.824219 11.71875 L 16.40625 11.71875 L 16.40625 7.03125 L 13.59375 7.03125 L 13.59375 2.34375 L 7.03125 2.34375 L 7.03125 7.03125 L 4.21875 7.03125 L 4.21875 11.71875 L 1.40625 11.71875 L 1.40625 16.40625 C 0.890625 16.40625 0.46875 16.828125 0.46875 17.34375 L 0.46875 18.28125 C 0.46875 18.796875 0.890625 19.21875 1.40625 19.21875 L 1.40625 23.4375 C 1.40625 24.210938 2.039062 24.84375 2.8125 24.84375 L 5.195312 24.84375 C 5.421875 26.429688 6.789062 27.65625 8.4375 27.65625 C 10.085938 27.65625 11.453125 26.429688 11.679688 24.84375 L 20.195312 24.84375 C 20.421875 26.429688 21.789062 27.65625 23.4375 27.65625 C 25.085938 27.65625 26.453125 26.429688 26.679688 24.84375 L 28.125 24.84375 C 28.898438 24.84375 29.53125 24.210938 29.53125 23.4375 L 29.53125 18.972656 C 29.53125 18.078125 29.035156 17.273438 28.234375 16.875 Z M 28.59375 21.273438 L 27.65625 20.804688 L 27.65625 20.15625 L 28.59375 20.15625 Z M 9.84375 12.65625 L 10.78125 12.65625 L 10.78125 13.59375 L 9.84375 13.59375 Z M 11.71875 14.53125 L 11.71875 12.65625 L 12.65625 12.65625 L 12.65625 16.40625 L 7.96875 16.40625 L 7.96875 12.65625 L 8.90625 12.65625 L 8.90625 14.53125 Z M 17.34375 16.40625 L 13.59375 16.40625 L 13.59375 12.65625 L 14.53125 12.65625 L 14.53125 14.53125 L 17.34375 14.53125 Z M 17.34375 13.125 L 17.34375 13.59375 L 15.46875 13.59375 L 15.46875 12.65625 L 17.390625 12.65625 C 17.359375 12.808594 17.34375 12.964844 17.34375 13.125 Z M 15.46875 11.71875 L 10.78125 11.71875 L 10.78125 7.96875 L 11.71875 7.96875 L 11.71875 9.84375 L 14.53125 9.84375 L 14.53125 7.96875 L 15.46875 7.96875 Z M 12.65625 7.96875 L 13.59375 7.96875 L 13.59375 8.90625 L 12.65625 8.90625 Z M 9.84375 3.28125 L 10.78125 3.28125 L 10.78125 4.21875 L 9.84375 4.21875 Z M 7.96875 3.28125 L 8.90625 3.28125 L 8.90625 5.15625 L 11.71875 5.15625 L 11.71875 3.28125 L 12.65625 3.28125 L 12.65625 7.03125 L 7.96875 7.03125 Z M 7.03125 7.96875 L 7.96875 7.96875 L 7.96875 8.90625 L 7.03125 8.90625 Z M 5.15625 7.96875 L 6.09375 7.96875 L 6.09375 9.84375 L 8.90625 9.84375 L 8.90625 7.96875 L 9.84375 7.96875 L 9.84375 11.71875 L 5.15625 11.71875 Z M 4.21875 12.65625 L 5.15625 12.65625 L 5.15625 13.59375 L 4.21875 13.59375 Z M 2.34375 12.65625 L 3.28125 12.65625 L 3.28125 14.53125 L 6.09375 14.53125 L 6.09375 12.65625 L 7.03125 12.65625 L 7.03125 16.40625 L 2.34375 16.40625 Z M 1.40625 17.34375 L 17.34375 17.34375 L 17.34375 18.28125 L 1.40625 18.28125 Z M 2.34375 21.09375 L 4.085938 21.09375 L 3.851562 22.03125 L 2.34375 22.03125 Z M 2.34375 23.4375 L 2.34375 22.96875 L 4.585938 22.96875 L 5.289062 20.15625 L 2.34375 20.15625 L 2.34375 19.21875 L 17.34375 19.21875 L 17.34375 23.90625 L 11.679688 23.90625 C 11.453125 22.320312 10.085938 21.09375 8.4375 21.09375 C 6.789062 21.09375 5.421875 22.320312 5.195312 23.90625 L 2.8125 23.90625 C 2.554688 23.90625 2.34375 23.695312 2.34375 23.4375 Z M 8.4375 26.71875 C 7.144531 26.71875 6.09375 25.667969 6.09375 24.375 C 6.09375 23.082031 7.144531 22.03125 8.4375 22.03125 C 9.730469 22.03125 10.78125 23.082031 10.78125 24.375 C 10.78125 25.667969 9.730469 26.71875 8.4375 26.71875 Z M 22.96875 16.40625 L 24.84375 16.40625 L 24.84375 17.34375 L 23.90625 17.34375 C 23.390625 17.34375 22.96875 16.921875 22.96875 16.40625 Z M 22.96875 15.46875 C 22.453125 15.46875 22.03125 15.890625 22.03125 16.40625 C 22.03125 16.75 22.128906 17.066406 22.292969 17.34375 L 20.15625 17.34375 L 20.15625 13.59375 L 24.398438 13.59375 L 24.746094 15.46875 Z M 20.15625 18.28125 L 24.84375 18.28125 L 24.84375 21.414062 C 24.417969 21.210938 23.941406 21.09375 23.4375 21.09375 C 21.789062 21.09375 20.421875 22.320312 20.195312 23.90625 L 20.15625 23.90625 Z M 23.4375 26.71875 C 22.144531 26.71875 21.09375 25.667969 21.09375 24.375 C 21.09375 23.082031 22.144531 22.03125 23.4375 22.03125 C 24.730469 22.03125 25.78125 23.082031 25.78125 24.375 C 25.78125 25.667969 24.730469 26.71875 23.4375 26.71875 Z M 28.125 23.90625 L 26.679688 23.90625 C 26.578125 23.203125 26.257812 22.570312 25.78125 22.082031 L 25.78125 15.9375 L 25.320312 13.421875 C 25.234375 12.980469 24.847656 12.65625 24.398438 12.65625 L 20.15625 12.65625 C 19.640625 12.65625 19.21875 13.078125 19.21875 13.59375 L 19.21875 23.90625 L 18.28125 23.90625 L 18.28125 13.125 C 18.28125 12.351562 18.914062 11.71875 19.6875 11.71875 L 24.660156 11.71875 C 25.351562 11.71875 25.933594 12.214844 26.046875 12.894531 L 26.765625 17.1875 L 27.816406 17.714844 C 28.296875 17.953125 28.59375 18.433594 28.59375 18.972656 L 28.59375 19.21875 L 26.71875 19.21875 L 26.71875 21.382812 L 28.59375 22.320312 L 28.59375 23.4375 C 28.59375 23.695312 28.382812 23.90625 28.125 23.90625 Z M 28.125 23.90625 "/>
</g>
</svg>
