<?xml version="1.0" encoding="UTF-8"?>
<svg xmlns="http://www.w3.org/2000/svg" xmlns:xlink="http://www.w3.org/1999/xlink" width="30pt" height="30pt" viewBox="0 0 30 30" version="1.1">
<g id="surface1">
<path style=" stroke:none;fill-rule:nonzero;fill:rgb(67.843137%,67.058824%,67.45098%);fill-opacity:1;" d="M 23.5 27.25 C 23.5 26.007812 19.695312 25 15.003906 25 C 10.308594 25 6.503906 26.007812 6.503906 27.25 C 6.503906 28.492188 10.308594 29.5 15.003906 29.5 C 19.695312 29.5 23.5 28.492188 23.5 27.25 Z M 23.5 27.25 "/>
<path style=" stroke:none;fill-rule:nonzero;fill:rgb(28.627451%,26.27451%,25.882353%);fill-opacity:1;" d="M 14.003906 10.503906 L 16.003906 10.503906 L 16.003906 26.5 C 16.003906 27.054688 15.554688 27.5 15.003906 27.5 C 14.449219 27.5 14.003906 27.054688 14.003906 26.5 Z M 14.003906 10.503906 "/>
<path style=" stroke:none;fill-rule:nonzero;fill:rgb(67.843137%,16.078431%,26.27451%);fill-opacity:1;" d="M 21 6.503906 C 21 9.816406 18.316406 12.503906 15.003906 12.503906 C 11.691406 12.503906 9.003906 9.816406 9.003906 6.503906 C 9.003906 3.191406 11.691406 0.507812 15.003906 0.507812 C 18.316406 0.507812 21 3.191406 21 6.503906 Z M 21 6.503906 "/>
<path style=" stroke:none;fill-rule:nonzero;fill:rgb(93.333333%,20.392157%,27.45098%);fill-opacity:1;" d="M 19.003906 6.503906 C 19.003906 8.714844 17.210938 10.503906 15.003906 10.503906 C 12.792969 10.503906 11.003906 8.714844 11.003906 6.503906 C 11.003906 4.296875 12.792969 2.503906 15.003906 2.503906 C 17.210938 2.503906 19.003906 4.296875 19.003906 6.503906 Z M 19.003906 6.503906 "/>
<path style=" stroke:none;fill-rule:nonzero;fill:rgb(0%,0%,0%);fill-opacity:1;" d="M 19.503906 6.503906 C 19.503906 4.019531 17.488281 2.003906 15.003906 2.003906 C 12.519531 2.003906 10.503906 4.019531 10.503906 6.503906 C 10.503906 8.988281 12.519531 11.003906 15.003906 11.003906 C 17.488281 11 19.5 8.988281 19.503906 6.503906 Z M 11.503906 6.503906 C 11.503906 4.570312 13.070312 3.003906 15.003906 3.003906 C 16.9375 3.003906 18.503906 4.570312 18.503906 6.503906 C 18.503906 8.4375 16.9375 10.003906 15.003906 10.003906 C 13.070312 10 11.503906 8.4375 11.503906 6.503906 Z M 11.503906 6.503906 "/>
<path style=" stroke:none;fill-rule:nonzero;fill:rgb(0%,0%,0%);fill-opacity:1;" d="M 15.003906 30 C 19.335938 30 24 29.140625 24 27.25 C 24 25.496094 20.066406 24.703125 16.503906 24.539062 L 16.503906 12.820312 C 19.710938 12.0625 21.839844 9.019531 21.457031 5.742188 C 21.074219 2.46875 18.300781 0 15.003906 0 C 11.707031 0 8.929688 2.46875 8.546875 5.742188 C 8.164062 9.019531 10.296875 12.0625 13.503906 12.820312 L 13.503906 24.539062 C 9.9375 24.703125 6.003906 25.496094 6.003906 27.25 C 6.003906 29.140625 10.667969 30 15.003906 30 Z M 9.503906 6.503906 C 9.5 3.585938 11.777344 1.175781 14.691406 1.007812 C 17.605469 0.84375 20.140625 2.984375 20.46875 5.882812 C 20.792969 8.785156 18.796875 11.433594 15.921875 11.921875 C 15.765625 11.945312 15.621094 11.964844 15.476562 11.980469 C 15.320312 11.992188 15.164062 12.003906 15.003906 12.003906 C 14.84375 12.003906 14.6875 11.992188 14.53125 11.980469 C 14.390625 11.964844 14.242188 11.945312 14.085938 11.921875 C 11.445312 11.472656 9.507812 9.183594 9.503906 6.503906 Z M 15.503906 12.980469 L 15.503906 26.5 C 15.503906 26.777344 15.277344 27 15.003906 27 C 14.726562 27 14.503906 26.777344 14.503906 26.5 L 14.503906 12.980469 C 14.835938 13.011719 15.171875 13.011719 15.503906 12.980469 Z M 13.503906 25.539062 L 13.503906 26.5 C 13.503906 27.328125 14.175781 28 15.003906 28 C 15.832031 28 16.503906 27.328125 16.503906 26.5 L 16.503906 25.539062 C 20.773438 25.742188 23 26.742188 23 27.25 C 23 27.84375 20.179688 29 15.003906 29 C 9.828125 29 7.003906 27.84375 7.003906 27.25 C 7.003906 26.742188 9.234375 25.742188 13.503906 25.539062 Z M 13.503906 25.539062 "/>
</g>
</svg>
